# xmcd
#
# Track frame offsets: 
#        150
#        35469
#        59112
#        82411
#        112468
#        132068
#        166940
#
# Disc length: 2579 seconds
#
# Revision: 0
# Processed by: cddbd v1.5.2PL0 Copyright (c) Steve Scherf et al.
# Submitted via: ExactAudioCopy v0.99pb5
#
DISCID=680a1107
DTITLE=Robben Ford - Live At Yoshi's Disc 1
DYEAR=2008
DGENRE=Blues
TTITLE0=01 In The beginning
TTITLE1=02 Start It Up
TTITLE2=03 Tired Of Talking
TTITLE3=04 Don't let Me Be Misunderstiid
TTITLE4=05 The Miller's Son
TTITLE5=06 Lovin' Cup
TTITLE6=07 Talk To Yoiur Daughter
EXTD=
EXTT0=
EXTT1=
EXTT2=
EXTT3=
EXTT4=
EXTT5=
EXTT6=
PLAYORDER=
